<?xml version="1.0" encoding="utf-8"?>
<!-- Generator: Adobe Illustrator 24.0.1, SVG Export Plug-In . SVG Version: 6.00 Build 0)  -->
<svg version="1.1" id="Layer_1" xmlns="http://www.w3.org/2000/svg" xmlns:xlink="http://www.w3.org/1999/xlink" x="0px" y="0px"
	 viewBox="0 0 271.6 81.9" style="enable-background:new 0 0 271.6 81.9;" xml:space="preserve">
<style type="text/css">
	.st0{fill:#591C48;}
</style>
<g>
	<g>
		<circle class="st0" cx="35.3" cy="71.1" r="1.2"/>
	</g>
	<g>
		<circle class="st0" cx="34.7" cy="66.5" r="1.2"/>
	</g>
	<g>
		<circle class="st0" cx="35.1" cy="61.7" r="1.2"/>
	</g>
	<g>
		<circle class="st0" cx="35.1" cy="55.5" r="1.2"/>
	</g>
	<g>
		<circle class="st0" cx="35.3" cy="50.5" r="1.2"/>
	</g>
	<g>
		<circle class="st0" cx="35.3" cy="45.4" r="1.2"/>
	</g>
	<g>
		<circle class="st0" cx="35.3" cy="40.2" r="1.2"/>
	</g>
	<g>
		<circle class="st0" cx="32.2" cy="43.3" r="1.2"/>
	</g>
	<g>
		<circle class="st0" cx="32.5" cy="49.2" r="1.2"/>
	</g>
	<g>
		<circle class="st0" cx="29.8" cy="51" r="1.2"/>
	</g>
	<g>
		<circle class="st0" cx="32.2" cy="53.6" r="1.2"/>
	</g>
	<g>
		<circle class="st0" cx="32.6" cy="58.3" r="1.2"/>
	</g>
	<g>
		<circle class="st0" cx="65.3" cy="12.6" r="1.2"/>
	</g>
	<g>
		<circle class="st0" cx="32.2" cy="63.9" r="1.2"/>
	</g>
	<g>
		<circle class="st0" cx="32.2" cy="69.1" r="1.2"/>
	</g>
	<g>
		<circle class="st0" cx="22.9" cy="73.8" r="1.2"/>
	</g>
	<g>
		<circle class="st0" cx="38.5" cy="80.7" r="1.2"/>
	</g>
	<g>
		<ellipse class="st0" cx="16.3" cy="28.8" rx="1.2" ry="1.2"/>
	</g>
	<g>
		<ellipse class="st0" cx="16.7" cy="33.7" rx="1.2" ry="1.2"/>
	</g>
	<g>
		<ellipse class="st0" cx="17.3" cy="38.9" rx="1.2" ry="1.2"/>
	</g>
	<g>
		<ellipse class="st0" cx="12.4" cy="31.6" rx="1.2" ry="1.2"/>
	</g>
	<g>
		<ellipse class="st0" cx="18.4" cy="43.5" rx="1.2" ry="1.2"/>
	</g>
	<g>
		<ellipse class="st0" cx="22.4" cy="43.4" rx="1.2" ry="1.2"/>
	</g>
	<g>
		<ellipse class="st0" cx="22.7" cy="24.4" rx="1.2" ry="1.2"/>
	</g>
	<g>
		<ellipse class="st0" cx="11.6" cy="37.3" rx="1.2" ry="1.2"/>
	</g>
	<g>
		<ellipse class="st0" cx="27.6" cy="43" rx="1.2" ry="1.2"/>
	</g>
	<g>
		<ellipse class="st0" cx="29.4" cy="46.5" rx="1.2" ry="1.2"/>
	</g>
	<g>
		<ellipse class="st0" cx="25.1" cy="48.6" rx="1.2" ry="1.2"/>
	</g>
	<g>
		<ellipse class="st0" cx="12.3" cy="47.3" rx="1.2" ry="1.2"/>
	</g>
	<g>
		<circle class="st0" cx="48.8" cy="70.9" r="1.2"/>
	</g>
	<g>
		<circle class="st0" cx="51.9" cy="73.7" r="1.2"/>
	</g>
	<g>
		<circle class="st0" cx="48.9" cy="76.2" r="1.2"/>
	</g>
	<g>
		<circle class="st0" cx="44.1" cy="79.3" r="1.2"/>
	</g>
	<g>
		<circle class="st0" cx="39.8" cy="71.6" r="1.2"/>
	</g>
	<g>
		<circle class="st0" cx="44.2" cy="70.7" r="1.2"/>
	</g>
	<g>
		<circle class="st0" cx="40" cy="11" r="1.2"/>
	</g>
	<g>
		<circle class="st0" cx="44.2" cy="11.9" r="1.2"/>
	</g>
	<g>
		<circle class="st0" cx="36.4" cy="8.1" r="1.2"/>
	</g>
	<g>
		<circle class="st0" cx="42.4" cy="8.4" r="1.2"/>
	</g>
	<g>
		<circle class="st0" cx="48.4" cy="66" r="1.2"/>
	</g>
	<g>
		<circle class="st0" cx="51.6" cy="68.9" r="1.2"/>
	</g>
	<g>
		<circle class="st0" cx="59.9" cy="70.7" r="1.2"/>
	</g>
	<g>
		<circle class="st0" cx="1.2" cy="25" r="1.2"/>
	</g>
	<g>
		<circle class="st0" cx="59.1" cy="56.9" r="1.2"/>
	</g>
	<g>
		<circle class="st0" cx="16.2" cy="56.3" r="1.2"/>
	</g>
	<g>
		<circle class="st0" cx="51.3" cy="64.1" r="1.2"/>
	</g>
	<g>
		<circle class="st0" cx="48.6" cy="60.6" r="1.2"/>
	</g>
	<g>
		<circle class="st0" cx="52" cy="58.5" r="1.2"/>
	</g>
	<g>
		<circle class="st0" cx="48.8" cy="55.7" r="1.2"/>
	</g>
	<g>
		<circle class="st0" cx="51.9" cy="54.5" r="1.2"/>
	</g>
	<g>
		<circle class="st0" cx="54.2" cy="62.2" r="1.2"/>
	</g>
	<g>
		<circle class="st0" cx="48.8" cy="51" r="1.2"/>
	</g>
	<g>
		<circle class="st0" cx="51.6" cy="48.2" r="1.2"/>
	</g>
	<g>
		<circle class="st0" cx="56.2" cy="42.9" r="1.2"/>
	</g>
	<g>
		<circle class="st0" cx="54.7" cy="46.9" r="1.2"/>
	</g>
	<g>
		<circle class="st0" cx="60.4" cy="48.1" r="1.2"/>
	</g>
	<g>
		<circle class="st0" cx="66.1" cy="19.5" r="1.2"/>
	</g>
	<g>
		<circle class="st0" cx="65.6" cy="54.3" r="1.2"/>
	</g>
	<g>
		<circle class="st0" cx="75.9" cy="49" r="1.2"/>
	</g>
	<g>
		<circle class="st0" cx="72.1" cy="33.9" r="1.2"/>
	</g>
	<g>
		<circle class="st0" cx="54.9" cy="51.8" r="1.2"/>
	</g>
	<g>
		<circle class="st0" cx="48.4" cy="45.1" r="1.2"/>
	</g>
	<g>
		<circle class="st0" cx="48.8" cy="40" r="1.2"/>
	</g>
	<g>
		<circle class="st0" cx="35.1" cy="26.7" r="1.2"/>
	</g>
	<g>
		<circle class="st0" cx="29.4" cy="1.2" r="1.2"/>
	</g>
	<g>
		<circle class="st0" cx="35.1" cy="22" r="1.2"/>
	</g>
	<g>
		<circle class="st0" cx="30.1" cy="19" r="1.2"/>
	</g>
	<g>
		<circle class="st0" cx="41.3" cy="1.4" r="1.2"/>
	</g>
	<g>
		<circle class="st0" cx="35.3" cy="16.4" r="1.2"/>
	</g>
	<g>
		<circle class="st0" cx="31.9" cy="13.3" r="1.2"/>
	</g>
	<g>
		<circle class="st0" cx="35.3" cy="11.5" r="1.2"/>
	</g>
	<g>
		<circle class="st0" cx="37.3" cy="74.9" r="1.2"/>
	</g>
	<g>
		<circle class="st0" cx="28.3" cy="61.2" r="1.2"/>
	</g>
	<g>
		<circle class="st0" cx="41.5" cy="75.8" r="1.2"/>
	</g>
	<g>
		<circle class="st0" cx="45.2" cy="75" r="1.2"/>
	</g>
	<g>
		<circle class="st0" cx="34.5" cy="77" r="1.2"/>
	</g>
	<g>
		<circle class="st0" cx="26.8" cy="54.4" r="1.2"/>
	</g>
	<g>
		<circle class="st0" cx="32.3" cy="73.8" r="1.2"/>
	</g>
	<g>
		<circle class="st0" cx="48.6" cy="26.7" r="1.2"/>
	</g>
	<g>
		<circle class="st0" cx="48.8" cy="21.8" r="1.2"/>
	</g>
	<g>
		<circle class="st0" cx="48.4" cy="17.3" r="1.2"/>
	</g>
	<g>
		<circle class="st0" cx="48.6" cy="11.5" r="1.2"/>
	</g>
	<g>
		<circle class="st0" cx="46.4" cy="8.7" r="1.2"/>
	</g>
	<g>
		<circle class="st0" cx="64.3" cy="31.1" r="1.2"/>
	</g>
	<g>
		<circle class="st0" cx="68" cy="27.8" r="1.2"/>
	</g>
	<g>
		<circle class="st0" cx="63.9" cy="36" r="1.2"/>
	</g>
	<g>
		<circle class="st0" cx="71" cy="21.7" r="1.2"/>
	</g>
	<g>
		<circle class="st0" cx="68.1" cy="33" r="1.2"/>
	</g>
	<g>
		<circle class="st0" cx="67.5" cy="37.2" r="1.2"/>
	</g>
	<g>
		<circle class="st0" cx="68.4" cy="41.4" r="1.2"/>
	</g>
	<g>
		<circle class="st0" cx="53.5" cy="27.2" r="1.2"/>
	</g>
	<g>
		<circle class="st0" cx="52" cy="24.1" r="1.2"/>
	</g>
	<g>
		<circle class="st0" cx="52.3" cy="9.7" r="1.2"/>
	</g>
	<g>
		<circle class="st0" cx="58.3" cy="20.3" r="1.2"/>
	</g>
	<g>
		<circle class="st0" cx="58.9" cy="27.2" r="1.2"/>
	</g>
	<g>
		<circle class="st0" cx="52.6" cy="19.4" r="1.2"/>
	</g>
	<g>
		<circle class="st0" cx="52.4" cy="15" r="1.2"/>
	</g>
	<g>
		<circle class="st0" cx="61.7" cy="23.9" r="1.2"/>
	</g>
	<g>
		<circle class="st0" cx="56.4" cy="24.2" r="1.2"/>
	</g>
	<g>
		<circle class="st0" cx="60.1" cy="11.9" r="1.2"/>
	</g>
	<g>
		<circle class="st0" cx="17.6" cy="23.8" r="1.2"/>
	</g>
	<g>
		<circle class="st0" cx="26.6" cy="23.4" r="1.2"/>
	</g>
	<g>
		<circle class="st0" cx="11" cy="19.5" r="1.2"/>
	</g>
	<g>
		<circle class="st0" cx="31.5" cy="23.9" r="1.2"/>
	</g>
	<g>
		<circle class="st0" cx="25.2" cy="12.1" r="1.2"/>
	</g>
	<g>
		<circle class="st0" cx="64.1" cy="26.7" r="1.2"/>
	</g>
	<g>
		<circle class="st0" cx="53.7" cy="39.7" r="1.2"/>
	</g>
	<g>
		<circle class="st0" cx="51.5" cy="43.4" r="1.2"/>
	</g>
	<g>
		<circle class="st0" cx="59.1" cy="40.2" r="1.2"/>
	</g>
	<g>
		<circle class="st0" cx="61.6" cy="44.1" r="1.2"/>
	</g>
	<g>
		<circle class="st0" cx="64.3" cy="40.4" r="1.2"/>
	</g>
	<g>
		<circle class="st0" cx="56" cy="15.8" r="1.2"/>
	</g>
	<g>
		<circle class="st0" cx="65.3" cy="44.7" r="1.2"/>
	</g>
	<g>
		<ellipse class="st0" cx="19.9" cy="36" rx="1.2" ry="1.2"/>
	</g>
	<g>
		<ellipse class="st0" cx="19.4" cy="31.6" rx="1.2" ry="1.2"/>
	</g>
	<g>
		<ellipse class="st0" cx="30.2" cy="40" rx="1.2" ry="1.2"/>
	</g>
	<g>
		<ellipse class="st0" cx="25" cy="40.2" rx="1.2" ry="1.2"/>
	</g>
	<g>
		<ellipse class="st0" cx="20.3" cy="40.2" rx="1.2" ry="1.2"/>
	</g>
	<g>
		<ellipse class="st0" cx="30.2" cy="27.2" rx="1.2" ry="1.2"/>
	</g>
	<g>
		<ellipse class="st0" cx="25.3" cy="27.4" rx="1.2" ry="1.2"/>
	</g>
	<g>
		<ellipse class="st0" cx="19.6" cy="27" rx="1.2" ry="1.2"/>
	</g>
	<g>
		<path class="st0" d="M107.3,35.5l-4.9-6.7v6.7h-3.5V21h3.5v6.3l4.7-6.3h4l-5.1,7.1l5.4,7.5L107.3,35.5L107.3,35.5z"/>
		<path class="st0" d="M118.4,30.7h-1.7v4.8h-3.5V21h6.1c2.9,0,5.2,2.2,5.2,5c0,1.8-1.1,3.4-2.8,4.2l3.2,5.3h-3.8L118.4,30.7z
			 M116.8,27.8h2.6c1,0,1.7-0.8,1.7-1.9s-0.8-1.9-1.7-1.9h-2.6V27.8z"/>
		<path class="st0" d="M136.9,32.3v3.2h-9.6V21h9.5v3.2h-6v2.4h5.5v3.2h-5.5v2.6L136.9,32.3L136.9,32.3z"/>
		<path class="st0" d="M138.8,32.2l3-1.7c0.5,1.2,1.5,2,3.2,2s2.1-0.6,2.1-1.2c0-0.9-0.9-1.2-3.2-1.8c-2.3-0.6-4.5-1.6-4.5-4.4
			s2.5-4.4,5.1-4.4c2.5,0,4.5,1.1,5.6,3.3l-2.9,1.6c-0.5-1-1.2-1.7-2.6-1.7c-1.1,0-1.6,0.5-1.6,1.1c0,0.7,0.4,1.1,2.7,1.8
			c2.3,0.7,4.9,1.4,4.9,4.5c0,2.8-2.4,4.5-5.7,4.5C141.7,35.8,139.6,34.3,138.8,32.2z"/>
		<path class="st0" d="M162.7,24.2h-4v11.3h-3.5V24.2h-3.9V21h11.4V24.2z M153,16.8h3.2l0.8,1.1l0.8-1.1h3.2l-2.3,3.1h-3.2L153,16.8
			z"/>
		<path class="st0" d="M172.7,33.2H167l-0.8,2.3h-3.8l5.2-14.5h4.4l5.2,14.5h-3.8L172.7,33.2z M171.7,30.1l-1.8-5.3l-1.8,5.3H171.7z
			"/>
		<path class="st0" d="M191.2,21v14.5h-2.6l-5.9-7.9v7.9h-3.5V21h2.6l5.9,7.9V21H191.2z"/>
		<path class="st0" d="M198,21v14.5h-3.5V21H198z"/>
		<path class="st0" d="M210.2,33.2h-5.7l-0.8,2.3h-3.8l5.2-14.5h4.4l5.2,14.5h-3.8L210.2,33.2z M209.2,30.1l-1.8-5.3l-1.8,5.3H209.2
			z"/>
		<path class="st0" d="M109.5,50.4c0,2.6-2,4.5-4.8,4.5h-4v5.5h-1.2V45.9h5.2C107.5,45.9,109.5,47.8,109.5,50.4z M108.3,50.4
			c0-2-1.5-3.5-3.6-3.5h-4v6.9h4C106.8,53.8,108.3,52.4,108.3,50.4z"/>
		<path class="st0" d="M119,54.5h-4.8v6H113V46h6c2.5,0,4.5,1.9,4.5,4.3c0,2-1.4,3.6-3.4,4.1l3.8,6.1h-1.3L119,54.5z M114.2,53.4
			h4.9c1.9,0,3.4-1.5,3.4-3.2c0-1.8-1.5-3.3-3.4-3.3h-4.9V53.4z"/>
		<path class="st0" d="M126.2,53.2c0-4.2,3.5-7.5,7.9-7.5s7.9,3.3,7.9,7.5c0,4.2-3.5,7.5-7.9,7.5S126.2,57.3,126.2,53.2z
			 M140.7,53.2c0-3.6-2.9-6.4-6.7-6.4s-6.7,2.9-6.7,6.4c0,3.5,2.9,6.4,6.7,6.4S140.7,56.7,140.7,53.2z"/>
		<path class="st0" d="M154,46.9h-4.8v13.5H148V46.9h-4.8v-1H154V46.9z"/>
		<path class="st0" d="M158.2,45.9v14.5H157V45.9H158.2z"/>
		<path class="st0" d="M180.3,45.9v14.5h-1l-9-12.5v12.5h-1.2V45.9h1l9,12.5V45.9H180.3z"/>
		<path class="st0" d="M193.6,59.4v1h-8.8V45.9h8.7v1H186v5.6h7v1h-7v5.8h7.6V59.4z"/>
		<path class="st0" d="M208.2,45.9v14.5h-1l-9-12.5v12.5H197V45.9h1l9,12.5V45.9H208.2z"/>
		<path class="st0" d="M221.5,56.7h-7.7l-1.5,3.7h-1.2l5.9-14.5h1.2l5.9,14.5h-1.2L221.5,56.7z M221.1,55.7l-3.4-8.5l-3.4,8.5H221.1
			z M217.8,44.4h-1.1l1.7-2.6h1.3L217.8,44.4z"/>
		<path class="st0" d="M224.6,45.9h1.3l5,13.1l5.1-13.1h1.2l-5.7,14.5h-1.2L224.6,45.9z"/>
		<path class="st0" d="M241.2,45.9v14.5H240V45.9H241.2z"/>
		<path class="st0" d="M244.5,57.2l1-0.6c0.5,1.7,2.1,2.9,4.6,2.9c2.6,0,3.8-1.2,3.8-2.9s-1.6-2.4-3.9-3.1c-2.6-0.8-4.8-1.5-4.8-4
			c0-2.4,2-3.9,4.6-3.9c2.5,0,4.2,1.4,4.9,3.1l-1,0.5c-0.6-1.3-1.7-2.5-3.9-2.5c-2.1,0-3.4,1.2-3.4,2.8c0,1.7,1.5,2.3,3.7,3
			c2.7,0.9,5.1,1.7,5.1,4.2c0,2.4-2,4-5,4C247.2,60.7,245.2,59.3,244.5,57.2z"/>
		<path class="st0" d="M267.4,46.9h-4.8v13.5h-1.2V46.9h-4.7v-1h10.8L267.4,46.9L267.4,46.9z"/>
		<path class="st0" d="M271.6,45.9v14.5h-1.2V45.9H271.6z"/>
	</g>
</g>
</svg>
