<?xml version="1.0" encoding="utf-8"?>
<!-- Generator: Adobe Illustrator 24.0.1, SVG Export Plug-In . SVG Version: 6.00 Build 0)  -->
<svg version="1.1" id="Layer_1" xmlns="http://www.w3.org/2000/svg" xmlns:xlink="http://www.w3.org/1999/xlink" x="0px" y="0px"
	 viewBox="0 0 271.5 81.7" style="enable-background:new 0 0 271.5 81.7;" xml:space="preserve">
<style type="text/css">
	.st0{fill:#FFFFFF;}
</style>
<g>
	<g>
		<circle class="st0" cx="35.2" cy="71" r="1.1"/>
	</g>
	<g>
		<circle class="st0" cx="34.6" cy="66.4" r="1.1"/>
	</g>
	<g>
		<circle class="st0" cx="35" cy="61.6" r="1.1"/>
	</g>
	<g>
		<circle class="st0" cx="35" cy="55.4" r="1.1"/>
	</g>
	<g>
		<circle class="st0" cx="35.2" cy="50.4" r="1.1"/>
	</g>
	<g>
		<circle class="st0" cx="35.2" cy="45.3" r="1.1"/>
	</g>
	<g>
		<circle class="st0" cx="35.2" cy="40.1" r="1.1"/>
	</g>
	<g>
		<circle class="st0" cx="32.1" cy="43.2" r="1.1"/>
	</g>
	<g>
		<circle class="st0" cx="32.4" cy="49.1" r="1.1"/>
	</g>
	<g>
		<circle class="st0" cx="29.7" cy="50.9" r="1.1"/>
	</g>
	<g>
		<circle class="st0" cx="32.1" cy="53.5" r="1.1"/>
	</g>
	<g>
		<circle class="st0" cx="32.5" cy="58.2" r="1.1"/>
	</g>
	<g>
		<circle class="st0" cx="65.2" cy="12.5" r="1.1"/>
	</g>
	<g>
		<circle class="st0" cx="32.1" cy="63.8" r="1.1"/>
	</g>
	<g>
		<circle class="st0" cx="32.1" cy="69" r="1.1"/>
	</g>
	<g>
		<circle class="st0" cx="22.8" cy="73.7" r="1.1"/>
	</g>
	<g>
		<circle class="st0" cx="38.4" cy="80.6" r="1.1"/>
	</g>
	<g>
		<ellipse class="st0" cx="16.2" cy="28.7" rx="1.1" ry="1.1"/>
	</g>
	<g>
		<ellipse class="st0" cx="16.6" cy="33.6" rx="1.1" ry="1.1"/>
	</g>
	<g>
		<ellipse class="st0" cx="17.2" cy="38.8" rx="1.1" ry="1.1"/>
	</g>
	<g>
		<ellipse class="st0" cx="12.3" cy="31.5" rx="1.1" ry="1.1"/>
	</g>
	<g>
		<ellipse class="st0" cx="18.3" cy="43.4" rx="1.1" ry="1.1"/>
	</g>
	<g>
		<ellipse class="st0" cx="22.3" cy="43.3" rx="1.1" ry="1.1"/>
	</g>
	<g>
		<ellipse class="st0" cx="22.6" cy="24.3" rx="1.1" ry="1.1"/>
	</g>
	<g>
		<ellipse class="st0" cx="11.5" cy="37.2" rx="1.1" ry="1.1"/>
	</g>
	<g>
		<ellipse class="st0" cx="27.5" cy="42.9" rx="1.1" ry="1.1"/>
	</g>
	<g>
		<ellipse class="st0" cx="29.3" cy="46.4" rx="1.1" ry="1.1"/>
	</g>
	<g>
		<ellipse class="st0" cx="25" cy="48.5" rx="1.1" ry="1.1"/>
	</g>
	<g>
		<ellipse class="st0" cx="12.2" cy="47.2" rx="1.1" ry="1.1"/>
	</g>
	<g>
		<circle class="st0" cx="48.7" cy="70.8" r="1.1"/>
	</g>
	<g>
		<circle class="st0" cx="51.8" cy="73.6" r="1.1"/>
	</g>
	<g>
		<circle class="st0" cx="48.8" cy="76.1" r="1.1"/>
	</g>
	<g>
		<circle class="st0" cx="44" cy="79.2" r="1.1"/>
	</g>
	<g>
		<circle class="st0" cx="39.7" cy="71.5" r="1.1"/>
	</g>
	<g>
		<circle class="st0" cx="44.1" cy="70.6" r="1.1"/>
	</g>
	<g>
		<circle class="st0" cx="39.9" cy="10.9" r="1.1"/>
	</g>
	<g>
		<circle class="st0" cx="44.1" cy="11.8" r="1.1"/>
	</g>
	<g>
		<circle class="st0" cx="36.3" cy="8" r="1.1"/>
	</g>
	<g>
		<circle class="st0" cx="42.3" cy="8.3" r="1.1"/>
	</g>
	<g>
		<circle class="st0" cx="48.3" cy="65.9" r="1.1"/>
	</g>
	<g>
		<circle class="st0" cx="51.5" cy="68.8" r="1.1"/>
	</g>
	<g>
		<circle class="st0" cx="59.8" cy="70.6" r="1.1"/>
	</g>
	<g>
		<circle class="st0" cx="1.1" cy="24.9" r="1.1"/>
	</g>
	<g>
		<circle class="st0" cx="59" cy="56.8" r="1.1"/>
	</g>
	<g>
		<circle class="st0" cx="16.1" cy="56.2" r="1.1"/>
	</g>
	<g>
		<circle class="st0" cx="51.2" cy="64" r="1.1"/>
	</g>
	<g>
		<circle class="st0" cx="48.5" cy="60.5" r="1.1"/>
	</g>
	<g>
		<circle class="st0" cx="51.9" cy="58.4" r="1.1"/>
	</g>
	<g>
		<circle class="st0" cx="48.7" cy="55.6" r="1.1"/>
	</g>
	<g>
		<circle class="st0" cx="51.8" cy="54.4" r="1.1"/>
	</g>
	<g>
		<circle class="st0" cx="54.1" cy="62.1" r="1.1"/>
	</g>
	<g>
		<circle class="st0" cx="48.7" cy="50.9" r="1.1"/>
	</g>
	<g>
		<circle class="st0" cx="51.5" cy="48.1" r="1.1"/>
	</g>
	<g>
		<circle class="st0" cx="56.1" cy="42.8" r="1.1"/>
	</g>
	<g>
		<circle class="st0" cx="54.6" cy="46.8" r="1.1"/>
	</g>
	<g>
		<circle class="st0" cx="60.3" cy="48" r="1.1"/>
	</g>
	<g>
		<circle class="st0" cx="66" cy="19.4" r="1.1"/>
	</g>
	<g>
		<circle class="st0" cx="65.5" cy="54.2" r="1.1"/>
	</g>
	<g>
		<circle class="st0" cx="75.8" cy="48.9" r="1.1"/>
	</g>
	<g>
		<circle class="st0" cx="72" cy="33.8" r="1.1"/>
	</g>
	<g>
		<circle class="st0" cx="54.8" cy="51.7" r="1.1"/>
	</g>
	<g>
		<circle class="st0" cx="48.3" cy="45" r="1.1"/>
	</g>
	<g>
		<circle class="st0" cx="48.7" cy="39.9" r="1.1"/>
	</g>
	<g>
		<circle class="st0" cx="35" cy="26.6" r="1.1"/>
	</g>
	<g>
		<circle class="st0" cx="29.3" cy="1.1" r="1.1"/>
	</g>
	<g>
		<circle class="st0" cx="35" cy="21.9" r="1.1"/>
	</g>
	<g>
		<circle class="st0" cx="30" cy="18.9" r="1.1"/>
	</g>
	<g>
		<circle class="st0" cx="41.2" cy="1.3" r="1.1"/>
	</g>
	<g>
		<circle class="st0" cx="35.2" cy="16.3" r="1.1"/>
	</g>
	<g>
		<circle class="st0" cx="31.8" cy="13.2" r="1.1"/>
	</g>
	<g>
		<circle class="st0" cx="35.2" cy="11.4" r="1.1"/>
	</g>
	<g>
		<circle class="st0" cx="37.2" cy="74.8" r="1.1"/>
	</g>
	<g>
		<circle class="st0" cx="28.2" cy="61.1" r="1.1"/>
	</g>
	<g>
		<circle class="st0" cx="41.4" cy="75.7" r="1.1"/>
	</g>
	<g>
		<circle class="st0" cx="45.1" cy="74.9" r="1.1"/>
	</g>
	<g>
		<circle class="st0" cx="34.4" cy="76.9" r="1.1"/>
	</g>
	<g>
		<circle class="st0" cx="26.7" cy="54.3" r="1.1"/>
	</g>
	<g>
		<circle class="st0" cx="32.2" cy="73.7" r="1.1"/>
	</g>
	<g>
		<circle class="st0" cx="48.5" cy="26.6" r="1.1"/>
	</g>
	<g>
		<circle class="st0" cx="48.7" cy="21.7" r="1.1"/>
	</g>
	<g>
		<circle class="st0" cx="48.3" cy="17.2" r="1.1"/>
	</g>
	<g>
		<circle class="st0" cx="48.5" cy="11.4" r="1.1"/>
	</g>
	<g>
		<circle class="st0" cx="46.3" cy="8.6" r="1.1"/>
	</g>
	<g>
		<circle class="st0" cx="64.2" cy="31" r="1.1"/>
	</g>
	<g>
		<circle class="st0" cx="67.9" cy="27.7" r="1.1"/>
	</g>
	<g>
		<circle class="st0" cx="63.8" cy="35.9" r="1.1"/>
	</g>
	<g>
		<circle class="st0" cx="70.9" cy="21.6" r="1.1"/>
	</g>
	<g>
		<circle class="st0" cx="68" cy="32.9" r="1.1"/>
	</g>
	<g>
		<circle class="st0" cx="67.4" cy="37.1" r="1.1"/>
	</g>
	<g>
		<circle class="st0" cx="68.3" cy="41.3" r="1.1"/>
	</g>
	<g>
		<circle class="st0" cx="53.4" cy="27.1" r="1.1"/>
	</g>
	<g>
		<circle class="st0" cx="51.9" cy="24" r="1.1"/>
	</g>
	<g>
		<circle class="st0" cx="52.2" cy="9.6" r="1.1"/>
	</g>
	<g>
		<circle class="st0" cx="58.2" cy="20.2" r="1.1"/>
	</g>
	<g>
		<circle class="st0" cx="58.8" cy="27.1" r="1.1"/>
	</g>
	<g>
		<circle class="st0" cx="52.5" cy="19.3" r="1.1"/>
	</g>
	<g>
		<circle class="st0" cx="52.3" cy="14.9" r="1.1"/>
	</g>
	<g>
		<circle class="st0" cx="61.6" cy="23.8" r="1.1"/>
	</g>
	<g>
		<circle class="st0" cx="56.3" cy="24.1" r="1.1"/>
	</g>
	<g>
		<circle class="st0" cx="60" cy="11.8" r="1.1"/>
	</g>
	<g>
		<circle class="st0" cx="17.5" cy="23.7" r="1.1"/>
	</g>
	<g>
		<circle class="st0" cx="26.5" cy="23.3" r="1.1"/>
	</g>
	<g>
		<circle class="st0" cx="10.9" cy="19.4" r="1.1"/>
	</g>
	<g>
		<circle class="st0" cx="31.4" cy="23.8" r="1.1"/>
	</g>
	<g>
		<circle class="st0" cx="25.1" cy="12" r="1.1"/>
	</g>
	<g>
		<circle class="st0" cx="64" cy="26.6" r="1.1"/>
	</g>
	<g>
		<circle class="st0" cx="53.6" cy="39.6" r="1.1"/>
	</g>
	<g>
		<circle class="st0" cx="51.4" cy="43.3" r="1.1"/>
	</g>
	<g>
		<circle class="st0" cx="59" cy="40.1" r="1.1"/>
	</g>
	<g>
		<circle class="st0" cx="61.5" cy="44" r="1.1"/>
	</g>
	<g>
		<circle class="st0" cx="64.2" cy="40.3" r="1.1"/>
	</g>
	<g>
		<circle class="st0" cx="55.9" cy="15.7" r="1.1"/>
	</g>
	<g>
		<circle class="st0" cx="65.2" cy="44.6" r="1.1"/>
	</g>
	<g>
		<ellipse class="st0" cx="19.8" cy="35.9" rx="1.1" ry="1.1"/>
	</g>
	<g>
		<ellipse class="st0" cx="19.3" cy="31.5" rx="1.1" ry="1.1"/>
	</g>
	<g>
		<ellipse class="st0" cx="30.1" cy="39.9" rx="1.1" ry="1.1"/>
	</g>
	<g>
		<ellipse class="st0" cx="24.9" cy="40.1" rx="1.1" ry="1.1"/>
	</g>
	<g>
		<ellipse class="st0" cx="20.2" cy="40.1" rx="1.1" ry="1.1"/>
	</g>
	<g>
		<ellipse class="st0" cx="30.1" cy="27.1" rx="1.1" ry="1.1"/>
	</g>
	<g>
		<ellipse class="st0" cx="25.2" cy="27.3" rx="1.1" ry="1.1"/>
	</g>
	<g>
		<ellipse class="st0" cx="19.5" cy="26.9" rx="1.1" ry="1.1"/>
	</g>
	<g>
		<path class="st0" d="M107.2,35.4l-4.9-6.7v6.7h-3.5V20.9h3.5v6.3l4.7-6.3h4l-5.1,7.1l5.4,7.5L107.2,35.4L107.2,35.4z"/>
		<path class="st0" d="M118.3,30.6h-1.7v4.8h-3.5V20.9h6.1c2.9,0,5.2,2.2,5.2,5c0,1.8-1.1,3.4-2.8,4.2l3.2,5.3H121L118.3,30.6z
			 M116.7,27.7h2.6c1,0,1.7-0.8,1.7-1.9s-0.8-1.9-1.7-1.9h-2.6V27.7z"/>
		<path class="st0" d="M136.8,32.2v3.2h-9.6V20.9h9.5v3.2h-6v2.4h5.5v3.2h-5.5v2.6L136.8,32.2L136.8,32.2z"/>
		<path class="st0" d="M138.7,32.1l3-1.7c0.5,1.2,1.5,2,3.2,2c1.7,0,2.1-0.6,2.1-1.2c0-0.9-0.9-1.2-3.2-1.8
			c-2.3-0.6-4.5-1.6-4.5-4.4s2.5-4.4,5.1-4.4c2.5,0,4.5,1.1,5.6,3.3l-2.9,1.6c-0.5-1-1.2-1.7-2.6-1.7c-1.1,0-1.6,0.5-1.6,1.1
			c0,0.7,0.4,1.1,2.7,1.8c2.3,0.7,4.9,1.4,4.9,4.5c0,2.8-2.4,4.5-5.7,4.5C141.6,35.7,139.5,34.2,138.7,32.1z"/>
		<path class="st0" d="M162.6,24.1h-4v11.3h-3.5V24.1h-3.9v-3.2h11.4V24.1z M152.9,16.7h3.2l0.8,1.1l0.8-1.1h3.2l-2.3,3.1h-3.2
			L152.9,16.7z"/>
		<path class="st0" d="M172.6,33.1h-5.7l-0.8,2.3h-3.8l5.2-14.5h4.4l5.2,14.5h-3.8L172.6,33.1z M171.6,30l-1.8-5.3L168,30H171.6z"/>
		<path class="st0" d="M191.1,20.9v14.5h-2.6l-5.9-7.9v7.9h-3.5V20.9h2.6l5.9,7.9v-7.9H191.1z"/>
		<path class="st0" d="M197.9,20.9v14.5h-3.5V20.9H197.9z"/>
		<path class="st0" d="M210.1,33.1h-5.7l-0.8,2.3h-3.8l5.2-14.5h4.4l5.2,14.5h-3.8L210.1,33.1z M209.1,30l-1.8-5.3l-1.8,5.3H209.1z"
			/>
		<path class="st0" d="M109.4,50.3c0,2.6-2,4.5-4.8,4.5h-4v5.5h-1.2V45.8h5.2C107.4,45.8,109.4,47.7,109.4,50.3z M108.2,50.3
			c0-2-1.5-3.5-3.6-3.5h-4v6.9h4C106.7,53.7,108.2,52.3,108.2,50.3z"/>
		<path class="st0" d="M118.9,54.4h-4.8v6h-1.2V45.9h6c2.5,0,4.5,1.9,4.5,4.3c0,2-1.4,3.6-3.4,4.1l3.8,6.1h-1.3L118.9,54.4z
			 M114.1,53.3h4.9c1.9,0,3.4-1.5,3.4-3.2c0-1.8-1.5-3.3-3.4-3.3h-4.9V53.3z"/>
		<path class="st0" d="M126.1,53.1c0-4.2,3.5-7.5,7.9-7.5s7.9,3.3,7.9,7.5c0,4.2-3.5,7.5-7.9,7.5S126.1,57.2,126.1,53.1z
			 M140.6,53.1c0-3.6-2.9-6.4-6.7-6.4c-3.8,0-6.7,2.9-6.7,6.4c0,3.5,2.9,6.4,6.7,6.4C137.7,59.5,140.6,56.6,140.6,53.1z"/>
		<path class="st0" d="M153.9,46.8h-4.8v13.5h-1.2V46.8h-4.8v-1h10.8V46.8z"/>
		<path class="st0" d="M158.1,45.8v14.5h-1.2V45.8H158.1z"/>
		<path class="st0" d="M180.2,45.8v14.5h-1l-9-12.5v12.5H169V45.8h1l9,12.5V45.8H180.2z"/>
		<path class="st0" d="M193.5,59.3v1h-8.8V45.8h8.7v1h-7.5v5.6h7v1h-7v5.8h7.6V59.3z"/>
		<path class="st0" d="M208.1,45.8v14.5h-1l-9-12.5v12.5h-1.2V45.8h1l9,12.5V45.8H208.1z"/>
		<path class="st0" d="M221.4,56.6h-7.7l-1.5,3.7H211l5.9-14.5h1.2l5.9,14.5h-1.2L221.4,56.6z M221,55.6l-3.4-8.5l-3.4,8.5H221z
			 M217.7,44.3h-1.1l1.7-2.6h1.3L217.7,44.3z"/>
		<path class="st0" d="M224.5,45.8h1.3l5,13.1l5.1-13.1h1.2l-5.7,14.5h-1.2L224.5,45.8z"/>
		<path class="st0" d="M241.1,45.8v14.5h-1.2V45.8H241.1z"/>
		<path class="st0" d="M244.4,57.1l1-0.6c0.5,1.7,2.1,2.9,4.6,2.9c2.6,0,3.8-1.2,3.8-2.9s-1.6-2.4-3.9-3.1c-2.6-0.8-4.8-1.5-4.8-4
			c0-2.4,2-3.9,4.6-3.9c2.5,0,4.2,1.4,4.9,3.1l-1,0.5c-0.6-1.3-1.7-2.5-3.9-2.5c-2.1,0-3.4,1.2-3.4,2.8c0,1.7,1.5,2.3,3.7,3
			c2.7,0.9,5.1,1.7,5.1,4.2c0,2.4-2,4-5,4C247.1,60.6,245.1,59.2,244.4,57.1z"/>
		<path class="st0" d="M267.3,46.8h-4.8v13.5h-1.2V46.8h-4.7v-1h10.8L267.3,46.8L267.3,46.8z"/>
		<path class="st0" d="M271.5,45.8v14.5h-1.2V45.8H271.5z"/>
	</g>
</g>
</svg>
